<?xml version="1.0" encoding="UTF-8"?><svg xmlns="http://www.w3.org/2000/svg" viewBox="0 0 80 80"><g id="a"><circle cx="40" cy="40" r="35" style="fill: #ba2024;"/></g><g id="b"><path d="M57.09,21.12s-22.89-.02-24.47-.02-5.55,.79-8.3,4.16-3.04,5.69-3.17,7.52-.05,23.94-.05,23.94c0,0-.06,1.22,.5,1.73s1.61,.51,1.61,.51h24.7s4.96-.28,7.95-3.46,3.14-6.99,3.14-6.99v-10.09s.06-1.21-.39-1.76-1.63-.52-1.63-.52l-19.02,.08s-.77-.2-1.24,.44-.48,1.44-.48,1.44l.02,3.64s-.08,.99,.41,1.47,1.16,.68,1.16,.68l11.46-.08s1.01-.04,1.51,.51,.54,1.09,.54,1.09c0,0,.28,2.37-.99,4.06s-3.71,1.82-3.71,1.82h-15.7s-.99-.04-1.54-.6-.63-1.27-.63-1.27l.1-16.18s.14-2.23,1.43-3.32,3.04-1.28,3.04-1.28l23.62,.04s.98,.04,1.52-.54,.49-1.63,.49-1.63l-.03-3.71s.05-.46-.59-1.12-1.24-.59-1.24-.59Z" style="fill: #fff;"/></g></svg>