<?xml version="1.0" encoding="UTF-8"?><svg id="a" data-name="图层 3" xmlns="http://www.w3.org/2000/svg" viewBox="0 0 80 80"><circle cx="40" cy="40" r="39.5" style="fill: #fff;"/><path d="M40,.5C18.18,.5,.5,18.18,.5,40c0,18.32,12.47,33.72,29.39,38.19,.6-.22,1.13-.47,1.34-.68,.61-.61,.71-.99,.71-.99l.13-8.47s-4.43,.55-6.51,.3c-2.09-.26-5.36-1.83-6.11-3.38-.74-1.55-1.7-3.64-2.7-5.3-1-1.66-3.74-2.72-3.74-3.62s.77-.68,1.91-.72,2.99,.39,4.77,2.55c1.78,2.16,2.89,4.98,6.18,5.69,1.99,.52,6.16-.71,6.5-1.14,.34-.43-.04-1.79,.77-3.11,.81-1.32,1.53-2.04,1.53-2.04,0,0-5.11,.17-10.17-2.85s-6.6-8.72-6.96-10.21-1.45-7-.09-11.26,3.32-5.4,3.32-5.4c0,0-.96-3.77-.79-5.87,.17-2.11,1.19-4.85,1.19-4.85,0,0,3.91,.28,6.19,1.28,2.28,1,4.09,2.85,4.09,2.85,0,0,5.48-1.64,10.3-1.51,4.83,.13,10.19,1.51,10.19,1.51,0,0,3.7-2.79,6.7-3.74s4.15-.26,4.15-.26c0,0,1.28,2.94,1.09,6.13-.19,3.19-.7,4.09-.7,4.09,0,0,2.55,3.3,3.22,6.03,.66,2.73,1.76,10.31-2.83,17.14-4.6,6.83-14.3,7.09-14.3,7.09,0,0,1.64,.89,2.19,4.53,.55,3.64,.44,14.62,.44,14.62,0,0,.02,.28,.63,.73,.04,.03,.09,.06,.16,.09,15.6-5.28,26.83-20.03,26.83-37.41C79.5,18.18,61.82,.5,40,.5Z"/></svg>