<?xml version="1.0" encoding="utf-8"?><svg version="1.1" id="a" xmlns="http://www.w3.org/2000/svg" xmlns:xlink="http://www.w3.org/1999/xlink" x="0px" y="0px" viewBox="0 0 80 80" style="enable-background:new 0 0 80 80;" xml:space="preserve"><style type="text/css">.st0{fill:#FFFFFF;}.st1{fill:none;stroke:#000000;stroke-width:4;stroke-miterlimit:10;}</style><g><path class="st0" d="M7,52c0,3.3,2.7,6,6,6h54c3.3,0,6-2.7,6-6V28c0-3.3-2.7-6-6-6H13c-3.3,0-6,2.7-6,6V52z"/><path class="st1" d="M7,52c0,3.3,2.7,6,6,6h54c3.3,0,6-2.7,6-6V28c0-3.3-2.7-6-6-6H13c-3.3,0-6,2.7-6,6V52z"/>
</g><polyline class="st1" points="7,33 40,48 73,33 "/></svg>