<?xml version="1.0" encoding="UTF-8"?><svg id="a" xmlns="http://www.w3.org/2000/svg" viewBox="0 0 80 80"><g id="b"><path d="M33,21c-8.93,1.49-28.19,23.27-16.61,35.2,6.61,6.8,20.11,8.14,30.61,3.8s15-13,13-18-5-3-6-5,2.55-3.67-1-9c-1.3-1.96-6-2-10,0-1.69,.84-1.26,1.3-3,2-2.08,.83,5-11-7-9Z" style="fill: #e11e29;"/></g><g id="c"><ellipse cx="33.5" cy="47.5" rx="17.5" ry="11.5" transform="translate(-4.36 3.4) rotate(-5.45)" style="fill: #fff;"/></g><g id="d"><ellipse cx="32.82" cy="48.3" rx="9.2" ry="8.29" transform="translate(-2.14 1.53) rotate(-2.58)"/></g><g id="e"><circle cx="30" cy="50" r="3" style="fill: #fff;"/></g><g id="f"><circle cx="35" cy="47" r="1" style="fill: #fff;"/></g><g id="g"><path d="M59,30c0-1.99,.05-3.6-1-5-1.28-1.71-3.87-3-6-3" style="fill: none; stroke: #f29900; stroke-linecap: round; stroke-miterlimit: 10; stroke-width: 4px;"/></g><g id="h"><path d="M66.47,31.29c0-4.2-.39-8.32-2.47-11.29-2.57-3.67-7.25-5.71-11.53-5.71" style="fill: none; stroke: #f29900; stroke-linecap: round; stroke-miterlimit: 10; stroke-width: 4px;"/></g></svg>