<svg version="1.0" xmlns="http://www.w3.org/2000/svg" width="32px" height="32px" viewBox="0 0 32 32"><g transform="translate(0.000000,32.000000) scale(0.100000,-0.100000)" fill="#36a7e7" stroke="none"><path d="M60 290 c0 -11 6 -20 13 -21 6 0 -3 -5 -21 -10 -42 -12 -51 -36 -48 -133 3 -104 6 -106 156 -106 149 0 153 3 158 102 5 92 -7 124 -50 137 -18 5 -27 10 -20 10 16 1 16 41 -1 41 -8 0 -24 -11 -37 -25 -30 -32 -70 -32 -100 0 -28 30 -50 32 -50 5z m215 -150 l0 -75 -115 0 -115 0 -3 64 c-2 35 -1 70 2 78 4 11 29 13 118 11 l113 -3 0 -75z"/><path d="M84 166 c-8 -22 3 -49 19 -43 16 5 16 49 0 54 -7 3 -16 -2 -19 -11z"/><path d="M204 166 c-8 -22 3 -49 19 -43 16 5 16 49 0 54 -7 3 -16 -2 -19 -11z"/></g></svg>