<svg version="1.0" xmlns="http://www.w3.org/2000/svg" width="32px" height="32px" viewBox="0 0 32 32"><g transform="translate(0.000000,32.000000) scale(0.100000,-0.100000)" fill="#cc0000" stroke="none"><path d="M123 310 c-74 -17 -114 -68 -115 -149 0 -83 39 -136 113 -149 113 -21 191 40 191 148 0 107 -84 173 -189 150z m135 -72 c-3 -20 -8 -21 -70 -19 -59 2 -68 0 -78 -19 -6 -11 -10 -38 -8 -58 3 -36 4 -37 46 -40 43 -3 77 12 66 29 -3 5 -21 9 -40 9 -27 0 -34 4 -34 20 0 18 7 20 60 20 l60 0 0 -37 c0 -24 -8 -45 -22 -60 -19 -20 -31 -23 -100 -23 l-78 0 0 77 c0 65 3 80 22 100 19 20 31 23 100 23 76 0 79 -1 76 -22z"/></g></svg>